/* XPM */
static char *black_rook[] = {
/* columns rows colors chars-per-pixel */
"96 96 89 1 ",
"  c black",
". c #00E400E400E4",
"X c #022402240224",
"o c #031F031F031F",
"O c #045304530453",
"+ c #04A804A804A8",
"@ c #061F061F061F",
"# c #07D207D207D2",
"$ c #0A7D0A7D0A7D",
"% c #0AEF0AEF0AEF",
"& c #0F440F440F44",
"* c #111511151115",
"= c #204A204A204A",
"- c #298B298B298B",
"; c #29AE29AE29AE",
": c #2C432C432C43",
"> c #2CD82CD82CD8",
", c #2EB12EB12EB1",
"< c #337833783378",
"1 c #34AE34AE34AE",
"2 c #34F534F534F5",
"3 c #387438743874",
"4 c #38DE38DE38DE",
"5 c #3A993A993A99",
"6 c #3B723B723B72",
"7 c #3D723D723D72",
"8 c #3E013E013E01",
"9 c #40A540A540A5",
"0 c #433B433B433B",
"q c #45D445D445D4",
"w c #46FD46FD46FD",
"e c #485748574857",
"r c #496849684968",
"t c #4AE04AE04AE0",
"y c #4BD24BD24BD2",
"u c #4D654D654D65",
"i c #4E3F4E3F4E3F",
"p c #506D506D506D",
"a c #51EB51EB51EB",
"s c #5A985A985A98",
"d c #5B245B245B24",
"f c #6A3F6A3F6A3F",
"g c #6BA96BA96BA9",
"h c #6CC66CC66CC6",
"j c #7B4B7B4B7B4B",
"k c #80EA80EA80EA",
"l c #814B814B814B",
"z c #822382238223",
"x c #834783478347",
"c c #857585758575",
"v c #86B686B686B6",
"b c #87A487A487A4",
"n c #88F888F888F8",
"m c #8AC38AC38AC3",
"M c #8D4D8D4D8D4D",
"N c #8F498F498F49",
"B c #904E904E904E",
"V c #92B092B092B0",
"C c #938193819381",
"Z c #949194919491",
"A c #9FCC9FCC9FCC",
"S c #A042A042A042",
"D c #A56FA56FA56F",
"F c #AED8AED8AED8",
"G c #AF87AF87AF87",
"H c #B031B031B031",
"J c #B934B934B934",
"K c #BB2CBB2CBB2C",
"L c #C6F4C6F4C6F4",
"P c #ED40ED40ED40",
"I c #ED78ED78ED78",
"U c #EF79EF79EF79",
"Y c #F0C5F0C5F0C5",
"T c #F226F226F226",
"R c #F28AF28AF28A",
"E c #F3A9F3A9F3A9",
"W c #F4CDF4CDF4CD",
"Q c #F5EDF5EDF5ED",
"! c #F70EF70EF70E",
"~ c #F831F831F831",
"^ c #F8FEF8FEF8FE",
"/ c #FA12FA12FA12",
"( c #FACEFACEFACE",
") c #FBADFBADFBAD",
"_ c #FCD0FCD0FCD0",
"` c #FDBFFDBFFDBF",
"' c #FF3CFF3CFF3C",
"] c #FFFEFFFEFFFE",
"[ c background",
/* pixels */
"[[[[[[[[[[[[[[[[[[[[[[[[[[[[[[[[[[[[[[[[[[[[[[[[[[[[[[[[[[[[[[[[[[[[[[[[[[[[[[[[[[[[[[[[[[[[[[[[",
"[[[[[[[[[[[[[[[[[[[[[[[[[[[[[[[[[[[[[[[[[[[[[[[[[[[[[[[[[[[[[[[[[[[[[[[[[[[[[[[[[[[[[[[[[[[[[[[[",
"[[[[[[[[[[[[[[[[[[[[[[[[[[[[[[[[[[[[[[[[[[[[[[[[[[[[[[[[[[[[[[[[[[[[[[[[[[[[[[[[[[[[[[[[[[[[[[[[",
"[[[[[[[[[[[[[[[[[[[[[[[[[[[[[[[[[[[[[[[[[[[[[[[[[[[[[[[[[[[[[[[[[[[[[[[[[[[[[[[[[[[[[[[[[[[[[[[[",
"[[[[[[[[[[[[[[[[[[[[[[[[[[[[[[[[[[[[[[[[[[[[[[[[[[[[[[[[[[[[[[[[[[[[[[[[[[[[[[[[[[[[[[[[[[[[[[[[",
"[[[[[[[[[[[[[[[[[[[[[[[[[[[[[[[[[[[[[[[[[[[[[[[[[[[[[[[[[[[[[[[[[[[[[[[[[[[[[[[[[[[[[[[[[[[[[[[[",
"[[[[[[[[[[[[[[[[[[[[[[[[[[[[[[[[[[[[[[[[[[[[[[[[[[[[[[[[[[[[[[[[[[[[[[[[[[[[[[[[[[[[[[[[[[[[[[[[",
"[[[[[[[[[[[[[[[[[[[[[[[[[[[[[[[[[[[[[[[[[[[[[[[[[[[[[[[[[[[[[[[[[[[[[[[[[[[[[[[[[[[[[[[[[[[[[[[[",
"[[[[[[[[[[[[[[[[[[[[[[[[[[[[[[[[[[[[[[[[[[[[[[[[[[[[[[[[[[[[[[[[[[[[[[[[[[[[[[[[[[[[[[[[[[[[[[[[",
"[[[[[[[[[[[[[[[[[[[[[[[[[[[[[[[[[[[[[[[[[[[[[[[[[[[[[[[[[[[[[[[[[[[[[[[[[[[[[[[[[[[[[[[[[[[[[[[[",
"[[[[[[[[[[[[[[[[[[[[[[[[[[[[[[[[[[[[[[[[[[[[[[[[[[[[[[[[[[[[[[[[[[[[[[[[[[[[[[[[[[[[[[[[[[[[[[[[",
"[[[[[[[[[[[[[[[[[[[[[[[[[[[[[[[[[[[[[[[[[[[[[[[[[[[[[[[[[[[[[[[[[[[[[[[[[[[[[[[[[[[[[[[[[[[[[[[[",
"[[[[[[[[[[[[[[[[[[[[[          [[[[[[[[[[              [[[[[[[[[[          [[[[[[[[[[[[[[[[[[[[[",
"[[[[[[[[[[[[[[[[[[[[[          [[[[[[[[[[              [[[[[[[[[[          [[[[[[[[[[[[[[[[[[[[[",
"[[[[[[[[[[[[[[[[[[[[[          [[[[[[[[[[              [[[[[[[[[[          [[[[[[[[[[[[[[[[[[[[[",
"[[[[[[[[[[[[[[[[[[[[[          [[[[[[[[[[              [[[[[[[[[[          [[[[[[[[[[[[[[[[[[[[[",
"[[[[[[[[[[[[[[[[[[[[[          [[[[[[[[[[              [[[[[[[[[[          [[[[[[[[[[[[[[[[[[[[[",
"[[[[[[[[[[[[[[[[[[[[[           [[[[[[[[[              [[[[[[[[[           [[[[[[[[[[[[[[[[[[[[[",
"[[[[[[[[[[[[[[[[[[[[[                                                      [[[[[[[[[[[[[[[[[[[[[",
"[[[[[[[[[[[[[[[[[[[[[                                                      [[[[[[[[[[[[[[[[[[[[[",
"[[[[[[[[[[[[[[[[[[[[[                                                      [[[[[[[[[[[[[[[[[[[[[",
"[[[[[[[[[[[[[[[[[[[[[                                                      [[[[[[[[[[[[[[[[[[[[[",
"[[[[[[[[[[[[[[[[[[[[[  @@@@@@@@@@@@@@@@@@@@@@@@@@@@@@@@@@@@@@@@@@@@@@@@@@  [[[[[[[[[[[[[[[[[[[[[",
"[[[[[[[[[[[[[[[[[[[[[%cKJJJJJJJJJJJJJJJJJJJJJJJJJJJJJJJJJJJJJJJJJJJJJJJJJc&[[[[[[[[[[[[[[[[[[[[[",
"[[[[[[[[[[[[[[[[[[[[[8R]]]]]]]]]]]]]]]]]]]]]]]]]]]]]]]]]]]]]]]]]]]]]]]]]]R8[[[[[[[[[[[[[[[[[[[[[",
"[[[[[[[[[[[[[[[[[[[[[2LIIIIIIIIIIIIIIIIIIIIIIIIIIIIIIIIIIIIIIIIIIIIIIIIIIL2[[[[[[[[[[[[[[[[[[[[[",
"[[[[[[[[[[[[[[[[[[[[[[[2::::::::::::::::::::::::::::::::::::::::::::::::2[[[[[[[[[[[[[[[[[[[[[[[",
"[[[[[[[[[[[[[[[[[[[[[[[[                                                [[[[[[[[[[[[[[[[[[[[[[[[",
"[[[[[[[[[[[[[[[[[[[[[[[[[                                              [[[[[[[[[[[[[[[[[[[[[[[[[",
"[[[[[[[[[[[[[[[[[[[[[[[[[[[                                          [[[[[[[[[[[[[[[[[[[[[[[[[[[",
"[[[[[[[[[[[[[[[[[[[[[[[[[[[[   =jccccccccccccccccccccccccccccccj=   [[[[[[[[[[[[[[[[[[[[[[[[[[[[",
"[[[[[[[[[[[[[[[[[[[[[[[[[[[[[  Z]]]]]]]]]]]]]]]]]]]]]]]]]]]]]]]]Z  [[[[[[[[[[[[[[[[[[[[[[[[[[[[[",
"[[[[[[[[[[[[[[[[[[[[[[[[[[[[[[ l]]]]]]]]]]]]]]]]]]]]]]]]]]]]]]])l [[[[[[[[[[[[[[[[[[[[[[[[[[[[[[",
"[[[[[[[[[[[[[[[[[[[[[[[[[[[[[[ *pssssssssssssssssssssssssssssssp* [[[[[[[[[[[[[[[[[[[[[[[[[[[[[[",
"[[[[[[[[[[[[[[[[[[[[[[[[[[[[[[                                    [[[[[[[[[[[[[[[[[[[[[[[[[[[[[[",
"[[[[[[[[[[[[[[[[[[[[[[[[[[[[[[                                    [[[[[[[[[[[[[[[[[[[[[[[[[[[[[[",
"[[[[[[[[[[[[[[[[[[[[[[[[[[[[[[                                    [[[[[[[[[[[[[[[[[[[[[[[[[[[[[[",
"[[[[[[[[[[[[[[[[[[[[[[[[[[[[[[                                    [[[[[[[[[[[[[[[[[[[[[[[[[[[[[[",
"[[[[[[[[[[[[[[[[[[[[[[[[[[[[[[                                    [[[[[[[[[[[[[[[[[[[[[[[[[[[[[[",
"[[[[[[[[[[[[[[[[[[[[[[[[[[[[[[                                    [[[[[[[[[[[[[[[[[[[[[[[[[[[[[[",
"[[[[[[[[[[[[[[[[[[[[[[[[[[[[[[                                    [[[[[[[[[[[[[[[[[[[[[[[[[[[[[[",
"[[[[[[[[[[[[[[[[[[[[[[[[[[[[[[                                    [[[[[[[[[[[[[[[[[[[[[[[[[[[[[[",
"[[[[[[[[[[[[[[[[[[[[[[[[[[[[[[                                    [[[[[[[[[[[[[[[[[[[[[[[[[[[[[[",
"[[[[[[[[[[[[[[[[[[[[[[[[[[[[[[                                    [[[[[[[[[[[[[[[[[[[[[[[[[[[[[[",
"[[[[[[[[[[[[[[[[[[[[[[[[[[[[[[                                    [[[[[[[[[[[[[[[[[[[[[[[[[[[[[[",
"[[[[[[[[[[[[[[[[[[[[[[[[[[[[[[                                    [[[[[[[[[[[[[[[[[[[[[[[[[[[[[[",
"[[[[[[[[[[[[[[[[[[[[[[[[[[[[[[                                    [[[[[[[[[[[[[[[[[[[[[[[[[[[[[[",
"[[[[[[[[[[[[[[[[[[[[[[[[[[[[[[                                    [[[[[[[[[[[[[[[[[[[[[[[[[[[[[[",
"[[[[[[[[[[[[[[[[[[[[[[[[[[[[[[                                    [[[[[[[[[[[[[[[[[[[[[[[[[[[[[[",
"[[[[[[[[[[[[[[[[[[[[[[[[[[[[[[                                    [[[[[[[[[[[[[[[[[[[[[[[[[[[[[[",
"[[[[[[[[[[[[[[[[[[[[[[[[[[[[[[                                    [[[[[[[[[[[[[[[[[[[[[[[[[[[[[[",
"[[[[[[[[[[[[[[[[[[[[[[[[[[[[[[                                    [[[[[[[[[[[[[[[[[[[[[[[[[[[[[[",
"[[[[[[[[[[[[[[[[[[[[[[[[[[[[[[                                    [[[[[[[[[[[[[[[[[[[[[[[[[[[[[[",
"[[[[[[[[[[[[[[[[[[[[[[[[[[[[[[                                    [[[[[[[[[[[[[[[[[[[[[[[[[[[[[[",
"[[[[[[[[[[[[[[[[[[[[[[[[[[[[[[                                    [[[[[[[[[[[[[[[[[[[[[[[[[[[[[[",
"[[[[[[[[[[[[[[[[[[[[[[[[[[[[[[                                    [[[[[[[[[[[[[[[[[[[[[[[[[[[[[[",
"[[[[[[[[[[[[[[[[[[[[[[[[[[[[[[                                    [[[[[[[[[[[[[[[[[[[[[[[[[[[[[[",
"[[[[[[[[[[[[[[[[[[[[[[[[[[[[[[                                    [[[[[[[[[[[[[[[[[[[[[[[[[[[[[[",
"[[[[[[[[[[[[[[[[[[[[[[[[[[[[[[ %:222222222222222222222222222222:% [[[[[[[[[[[[[[[[[[[[[[[[[[[[[[",
"[[[[[[[[[[[[[[[[[[[[[[[[[[[[[[ fIRRRRRRRRRRRRRRRRRRRRRRRRRRRRRRIf [[[[[[[[[[[[[[[[[[[[[[[[[[[[[[",
"[[[[[[[[[[[[[[[[[[[[[[[[[[[[[[ S]]]]]]]]]]]]]]]]]]]]]]]]]]]]]]]]A [[[[[[[[[[[[[[[[[[[[[[[[[[[[[[",
"[[[[[[[[[[[[[[[[[[[[[[[[[[[[[  2DHGGGGGGGGGGGGGGGGGGGGGGGGGGGGHD2  [[[[[[[[[[[[[[[[[[[[[[[[[[[[[",
"[[[[[[[[[[[[[[[[[[[[[[[[[[[[     @ @@  @ @@  @ @@  @ @@  @ @@  @    [[[[[[[[[[[[[[[[[[[[[[[[[[[[",
"[[[[[[[[[[[[[[[[[[[[[[[[[[[                                          [[[[[[[[[[[[[[[[[[[[[[[[[[[",
"[[[[[[[[[[[[[[[[[[[[[[[[[[                                            [[[[[[[[[[[[[[[[[[[[[[[[[[",
"[[[[[[[[[[[[[[[[[[[[[[[[[                                              [[[[[[[[[[[[[[[[[[[[[[[[[",
"[[[[[[[[[[[[[[[[[[[[[[[[                                                [[[[[[[[[[[[[[[[[[[[[[[[",
"[[[[[[[[[[[[[[[[[[[[[[[2gjlccmmMMMMMCMCMCCMCCMCMCMCMMCMCCMCMCMMMmmmcmljf4[[[[[[[[[[[[[[[[[[[[[[[",
"[[[[[[[[[[[[[[[[[[[[[[%G]]]]]]]]]]]]]]]]]]]]]]]]]]]]]]]]]]]]]]]]]]]]]]]]G%[[[[[[[[[[[[[[[[[[[[[[",
"[[[[[[[[[[[[[[[[[[[[[[@CIRRWWW)WW))))))])))])))]]))]])]))]))))W))WWRRRRIC@[[[[[[[[[[[[[[[[[[[[[[",
"[[[[[[[[[[[[[[[[[[[[[[ &:244800qqrrrriipppppppppiippppipiiiirrrqq008842:& [[[[[[[[[[[[[[[[[[[[[[",
"[[[[[[[[[[[[[[[[[[[[[[                                                    [[[[[[[[[[[[[[[[[[[[[[",
"[[[[[[[[[[[[[[[[[[[[[[                                                    [[[[[[[[[[[[[[[[[[[[[[",
"[[[[[[[[[[[[[[[[[[[[[[                                                    [[[[[[[[[[[[[[[[[[[[[[",
"[[[[[[[[[[[[[[[[[[[[[[                                                    [[[[[[[[[[[[[[[[[[[[[[",
"[[[[[[[[[[[[[[[[[[[[[[ ;gjlmcmmmMMMMCMCMMCMCMCCMMCMCCMCMMCMCCMMMmmmcmljg; [[[[[[[[[[[[[[[[[[[[[[",
"[[[[[[[[[[[[[[[[[[[[[[%H]]]]]]]]]]]]]]]]]]]]]]]]]]]]]]]]]]]]]]]]]]]]]]]]G%[[[[[[[[[[[[[[[[[[[[[[",
"[[[[[[[[[[[[[[[[[      ZIRRWWW)WW))))))]]))))])])])]]))]])))))W))WWWRRRIC      [[[[[[[[[[[[[[[[[",
"[[[[[[[[[[[[[[[[[      *:244800qqrrrriipppppppppipppipppiiirrrrqq008842:*      [[[[[[[[[[[[[[[[[",
"[[[[[[[[[[[[[[[[[                                                              [[[[[[[[[[[[[[[[[",
"[[[[[[[[[[[[[[[[[                                                              [[[[[[[[[[[[[[[[[",
"[[[[[[[[[[[[[[[[[                                                              [[[[[[[[[[[[[[[[[",
"[[[[[[[[[[[[[[[[[                                                              [[[[[[[[[[[[[[[[[",
"[[[[[[[[[[[[[[[[[                                                              [[[[[[[[[[[[[[[[[",
"[[[[[[[[[[[[[[[[[[[[[[[[[[[[[[[[[[[[[[[[[[[[[[[[[[[[[[[[[[[[[[[[[[[[[[[[[[[[[[[[[[[[[[[[[[[[[[[[",
"[[[[[[[[[[[[[[[[[[[[[[[[[[[[[[[[[[[[[[[[[[[[[[[[[[[[[[[[[[[[[[[[[[[[[[[[[[[[[[[[[[[[[[[[[[[[[[[[",
"[[[[[[[[[[[[[[[[[[[[[[[[[[[[[[[[[[[[[[[[[[[[[[[[[[[[[[[[[[[[[[[[[[[[[[[[[[[[[[[[[[[[[[[[[[[[[[[[",
"[[[[[[[[[[[[[[[[[[[[[[[[[[[[[[[[[[[[[[[[[[[[[[[[[[[[[[[[[[[[[[[[[[[[[[[[[[[[[[[[[[[[[[[[[[[[[[[[",
"[[[[[[[[[[[[[[[[[[[[[[[[[[[[[[[[[[[[[[[[[[[[[[[[[[[[[[[[[[[[[[[[[[[[[[[[[[[[[[[[[[[[[[[[[[[[[[[[",
"[[[[[[[[[[[[[[[[[[[[[[[[[[[[[[[[[[[[[[[[[[[[[[[[[[[[[[[[[[[[[[[[[[[[[[[[[[[[[[[[[[[[[[[[[[[[[[[[",
"[[[[[[[[[[[[[[[[[[[[[[[[[[[[[[[[[[[[[[[[[[[[[[[[[[[[[[[[[[[[[[[[[[[[[[[[[[[[[[[[[[[[[[[[[[[[[[[[",
"[[[[[[[[[[[[[[[[[[[[[[[[[[[[[[[[[[[[[[[[[[[[[[[[[[[[[[[[[[[[[[[[[[[[[[[[[[[[[[[[[[[[[[[[[[[[[[[[",
"[[[[[[[[[[[[[[[[[[[[[[[[[[[[[[[[[[[[[[[[[[[[[[[[[[[[[[[[[[[[[[[[[[[[[[[[[[[[[[[[[[[[[[[[[[[[[[[[",
"[[[[[[[[[[[[[[[[[[[[[[[[[[[[[[[[[[[[[[[[[[[[[[[[[[[[[[[[[[[[[[[[[[[[[[[[[[[[[[[[[[[[[[[[[[[[[[[[",
"[[[[[[[[[[[[[[[[[[[[[[[[[[[[[[[[[[[[[[[[[[[[[[[[[[[[[[[[[[[[[[[[[[[[[[[[[[[[[[[[[[[[[[[[[[[[[[[[",
"[[[[[[[[[[[[[[[[[[[[[[[[[[[[[[[[[[[[[[[[[[[[[[[[[[[[[[[[[[[[[[[[[[[[[[[[[[[[[[[[[[[[[[[[[[[[[[[["
};
