/* XPM */
static char *black_pawn[] = {
/* columns rows colors chars-per-pixel */
"96 96 2 1 ",
"  c black",
". c background",
/* pixels */
"................................................................................................",
"................................................................................................",
"................................................................................................",
"................................................................................................",
"................................................................................................",
"................................................................................................",
"................................................................................................",
"................................................................................................",
"................................................................................................",
"................................................................................................",
".............................................      .............................................",
"...........................................          ...........................................",
".........................................              .........................................",
"........................................                ........................................",
"........................................                ........................................",
".......................................                  .......................................",
".......................................                  .......................................",
".......................................                  .......................................",
".......................................                  .......................................",
".......................................                  .......................................",
".......................................                  .......................................",
".......................................                  .......................................",
"........................................                ........................................",
".........................................              .........................................",
".........................................              .........................................",
"...........................................          ...........................................",
".........................................              .........................................",
".......................................                  .......................................",
".....................................                      .....................................",
"...................................                          ...................................",
"..................................                            ..................................",
"..................................                            ..................................",
".................................                              .................................",
"................................                                ................................",
"................................                                ................................",
"................................                                ................................",
"...............................                                  ...............................",
"...............................                                  ...............................",
"...............................                                  ...............................",
"...............................                                  ...............................",
"...............................                                  ...............................",
"...............................                                  ...............................",
"...............................                                  ...............................",
"................................                                ................................",
"................................                                ................................",
"................................                                ................................",
".................................                              .................................",
"..................................                            ..................................",
"...................................                          ...................................",
"....................................                        ....................................",
".....................................                      .....................................",
"......................................                    ......................................",
".....................................                      .....................................",
"...................................                          ...................................",
".................................                              .................................",
"................................                                ................................",
"..............................                                    ..............................",
".............................                                      .............................",
"............................                                        ............................",
"...........................                                          ...........................",
"..........................                                            ..........................",
".........................                                              .........................",
"........................                                                ........................",
"........................                                                ........................",
".......................                                                  .......................",
".......................                                                  .......................",
"......................                                                    ......................",
"......................                                                    ......................",
".....................                                                      .....................",
".....................                                                      .....................",
"....................                                                        ....................",
"....................                                                        ....................",
"....................                                                        ....................",
"....................                                                        ....................",
"...................                                                          ...................",
"...................                                                          ...................",
"...................                                                          ...................",
"...................                                                          ...................",
"...................                                                          ...................",
"...................                                                          ...................",
"...................                                                          ...................",
"...................                                                          ...................",
"...................                                                          ...................",
"...................                                                          ...................",
"...................                                                          ...................",
"....................                                                        ....................",
"................................................................................................",
"................................................................................................",
"................................................................................................",
"................................................................................................",
"................................................................................................",
"................................................................................................",
"................................................................................................",
"................................................................................................",
"................................................................................................",
"................................................................................................"
};
